<svg width="34" height="46" viewBox="0 0 34 46" fill="none" xmlns="http://www.w3.org/2000/svg">
<path d="M17 5.68553e-05C16.9668 -0.00029768 16.9335 0.00100605 16.9004 0.00396309C13.2852 0.0211043 10.6202 0.937142 8.8594 1.877C7.43931 2.63498 6.99562 3.16339 6.7012 3.45903C6.16017 3.24451 5.62689 3.00005 5.00003 3.00005C2.25052 3.00005 4.68938e-05 5.25053 4.68938e-05 8.00003C4.68938e-05 10.0278 1.25278 11.7184 3.00004 12.4981V21.8789L0.439499 24.4394C-0.1465 25.0254 -0.1465 25.9745 0.439499 26.5605C0.732498 26.8535 1.11604 27 1.50004 27C1.88404 27 2.26759 26.8535 2.56059 26.5605L2.73441 26.3867C2.66372 26.8408 2.59812 27.2915 2.51566 27.7656C2.26315 29.2174 2.00004 30.9444 2.00004 34C2.00004 36.8375 3.3484 39.7805 5.83597 42.0429L4.43949 43.4394C3.85349 44.0254 3.85349 44.9745 4.43949 45.5605C4.73249 45.8535 5.11603 45.9999 5.50003 45.9999C5.88403 45.9999 6.26858 45.8535 6.56057 45.5605L8.29885 43.8222C10.6105 45.1471 13.5029 45.9817 16.9121 45.996C16.918 45.9967 16.9238 45.9974 16.9297 45.998C16.9537 45.9981 16.9759 45.9999 17 45.9999C17.0339 46.0003 17.0678 45.999 17.1016 45.996C20.5048 45.9795 23.3926 45.1453 25.7011 43.8222L27.4394 45.5605C27.7314 45.8535 28.116 45.9999 28.5 45.9999C28.884 45.9999 29.2675 45.8535 29.5605 45.5605C30.1465 44.9745 30.1465 44.0254 29.5605 43.4394L28.1621 42.041C30.6487 39.7787 32 36.8369 32 34C32 30.9444 31.7368 29.2174 31.4843 27.7656C31.4019 27.2915 31.3363 26.8408 31.2656 26.3867L31.4394 26.5605C31.7324 26.8535 32.116 27 32.5 27C32.8839 27 33.2675 26.8535 33.5605 26.5605C34.1465 25.9745 34.1465 25.0254 33.5605 24.4394L31 21.8789V12.4981C32.7472 11.7184 33.9999 10.0278 33.9999 8.00003C33.9999 5.25053 31.7495 3.00005 29 3.00005C28.3731 3.00005 27.8398 3.24451 27.2988 3.45903C27.0044 3.16339 26.5607 2.63498 25.1406 1.877C23.3749 0.934527 20.7008 0.0141554 17.0703 0.00200997C17.0469 0.000534694 17.0235 -0.000116765 17 5.68553e-05ZM17 2.00005C20.3325 2.00005 22.6812 2.83042 24.1992 3.64067C25.7172 4.45092 26.3398 5.17778 26.3398 5.17778C26.4917 5.35069 26.6987 5.4659 26.9257 5.50397C27.1527 5.54204 27.3859 5.50064 27.5859 5.38676C28.0181 5.14043 28.4879 5.00004 29 5.00004C30.6684 5.00004 32 6.33155 32 8.00003C32 9.40517 31.043 10.5627 29.75 10.8965C29.5356 10.9519 29.3456 11.0769 29.2099 11.2518C29.0741 11.4268 29.0003 11.6419 29 11.8633V23C29 25.3245 29.2681 26.6864 29.5156 28.1094C29.7631 29.5323 30 31.0555 30 34C30 38.4723 25.5646 43.9999 17 43.9999C8.43536 43.9999 4.00003 38.4723 4.00003 34C4.00003 31.0555 4.23692 29.5323 4.48441 28.1094C4.73189 26.6864 5.00003 25.3245 5.00003 23V11.8633C4.99969 11.6419 4.92587 11.4268 4.79014 11.2518C4.65441 11.0769 4.46444 10.9519 4.25003 10.8965C2.95698 10.5627 2.00004 9.40517 2.00004 8.00003C2.00004 6.33155 3.33155 5.00004 5.00003 5.00004C5.5121 5.00004 5.98187 5.14043 6.41409 5.38676C6.61412 5.50064 6.84731 5.54204 7.07432 5.50397C7.30132 5.4659 7.50825 5.35069 7.66018 5.17778C7.66018 5.17778 8.28279 4.45092 9.8008 3.64067C11.3188 2.83042 13.6675 2.00005 17 2.00005ZM11.5 6.00004C9.02658 6.00004 7.00003 8.0266 7.00003 10.5C7.00003 12.9735 9.02658 15 11.5 15C13.9734 15 16 12.9735 16 10.5C16 8.0266 13.9734 6.00004 11.5 6.00004ZM22.498 6.00199C20.0252 6.00199 18 8.02715 18 10.5C18 12.9729 20.0252 14.9981 22.498 14.9981C24.9709 14.9981 26.998 12.9729 26.998 10.5C26.998 8.02715 24.9709 6.00199 22.498 6.00199ZM5.00003 7.00004C4.44803 7.00004 4.00003 7.44804 4.00003 8.00003C4.00003 8.55203 4.44803 9.00003 5.00003 9.00003C5.06803 9.00003 5.12744 8.97397 5.19144 8.96097C5.32544 8.41397 5.52219 7.89028 5.78519 7.40629C5.60219 7.16529 5.32603 7.00004 5.00003 7.00004ZM29 7.00004C28.674 7.00004 28.3978 7.16529 28.2148 7.40629C28.4778 7.89028 28.6746 8.41397 28.8086 8.96097C28.8726 8.97397 28.932 9.00003 29 9.00003C29.552 9.00003 30 8.55203 30 8.00003C30 7.44804 29.552 7.00004 29 7.00004ZM11.5 8.00003C12.8926 8.00003 14 9.10747 14 10.5C14 11.8926 12.8926 13 11.5 13C10.6756 13 9.95786 12.6057 9.50393 12C9.90107 11.999 10.2816 11.8405 10.5621 11.5593C10.8425 11.2781 11 10.8972 11 10.5C11 10.1029 10.8425 9.72194 10.5621 9.44075C10.2816 9.15956 9.90107 9.00107 9.50393 9.00003C9.95786 8.39437 10.6756 8.00003 11.5 8.00003ZM22.498 8.00199C23.89 8.00199 24.998 9.10803 24.998 10.5C24.998 11.892 23.89 12.9981 22.498 12.9981C21.6741 12.9981 20.9574 12.605 20.5039 12C20.901 11.999 21.2816 11.8405 21.562 11.5593C21.8425 11.2781 22 10.8972 22 10.5C22 10.1029 21.8425 9.72194 21.562 9.44075C21.2816 9.15956 20.901 9.00107 20.5039 9.00003C20.9574 8.39504 21.6741 8.00199 22.498 8.00199ZM17 14C16.3125 14.0002 15.6459 14.1579 15.1119 14.4466C14.5778 14.7353 14.2088 15.1375 14.0664 15.5859C13.7647 15.7721 13.4788 15.9822 13.2305 16.2305C12.5108 16.9501 12 17.9167 12 19C12 19.25 12.0577 20.2533 12.8418 20.9394C13.3334 21.3696 14.0418 21.6604 15 21.8301V23C14.9981 23.1325 15.0226 23.2641 15.072 23.387C15.1214 23.51 15.1948 23.6219 15.2878 23.7163C15.3809 23.8107 15.4918 23.8856 15.614 23.9367C15.7363 23.9879 15.8675 24.0142 16 24.0142C16.1325 24.0142 16.2637 23.9879 16.386 23.9367C16.5082 23.8856 16.6191 23.8107 16.7122 23.7163C16.8052 23.6219 16.8786 23.51 16.928 23.387C16.9774 23.2641 17.0019 23.1325 17 23C16.9981 23.1325 17.0226 23.2641 17.072 23.387C17.1214 23.51 17.1948 23.6219 17.2878 23.7163C17.3809 23.8107 17.4918 23.8856 17.614 23.9367C17.7363 23.9879 17.8675 24.0142 18 24.0142C18.1325 24.0142 18.2637 23.9879 18.386 23.9367C18.5082 23.8856 18.6191 23.8107 18.7122 23.7163C18.8052 23.6219 18.8786 23.51 18.928 23.387C18.9774 23.2641 19.0019 23.1325 19 23V21.8301C19.9582 21.6604 20.6666 21.3696 21.1582 20.9394C21.9423 20.2533 22 19.25 22 19C22 17.9167 21.4892 16.9501 20.7695 16.2305C20.5208 15.9818 20.2339 15.7723 19.9316 15.5859C19.7894 15.1377 19.4206 14.7357 18.8869 14.447C18.3533 14.1583 17.6872 14.0005 17 14ZM14.9043 17.4277C15.4639 17.7937 16.2161 17.9991 17 18C17.7841 18 18.5371 17.7953 19.0976 17.4297C19.1862 17.4965 19.275 17.5641 19.3555 17.6445C19.7608 18.0499 20 18.5833 20 19C20 19.25 20.0576 19.2467 19.8418 19.4355C19.6259 19.6244 18.875 20 17 20C15.125 20 14.374 19.6244 14.1582 19.4355C13.9424 19.2467 14 19.25 14 19C14 18.5833 14.2392 18.0499 14.6445 17.6445C14.7256 17.5635 14.8149 17.4949 14.9043 17.4277Z" fill="black"/>
</svg>
