<svg width="46" height="46" viewBox="0 0 46 46" fill="none" xmlns="http://www.w3.org/2000/svg">
<path d="M1.09525 0C0.804782 2.90422e-05 0.526219 0.115429 0.320827 0.320819C0.115435 0.526209 3.37417e-05 0.80477 4.69922e-06 1.09524V21.9047V44.9046V44.9111C0.000843416 44.9318 0.00227013 44.9525 0.004283 44.9731C0.00527229 44.991 0.00669878 45.0088 0.00856131 45.0266C0.00924893 45.0309 0.00996201 45.0351 0.0107005 45.0394C0.0141982 45.0724 0.0191947 45.1053 0.0256745 45.1378C0.0322443 45.1681 0.0400949 45.1981 0.0492052 45.2277C0.055159 45.2456 0.0615786 45.2635 0.0684576 45.2811C0.0763369 45.3028 0.0848978 45.3242 0.0941274 45.3453C0.108359 45.3767 0.124063 45.4074 0.141189 45.4373C0.150705 45.4547 0.160692 45.4718 0.171137 45.4886C0.178715 45.5016 0.18656 45.5145 0.194667 45.5271C0.208331 45.5461 0.222599 45.5647 0.237451 45.5828C0.245806 45.5936 0.254364 45.6043 0.26312 45.6148C0.277592 45.6317 0.292573 45.6481 0.308043 45.664C0.317125 45.6742 0.326396 45.6842 0.335851 45.694C0.359181 45.7157 0.383448 45.7364 0.408583 45.756C0.410713 45.7582 0.412852 45.7603 0.415 45.7624C0.439854 45.7821 0.465548 45.8006 0.49201 45.8181C0.496971 45.8217 0.501962 45.8252 0.506984 45.8288C0.510537 45.8309 0.514102 45.8331 0.517679 45.8352C0.544128 45.8513 0.571248 45.8663 0.598967 45.8801C0.631706 45.8967 0.665262 45.9117 0.699507 45.925C0.721354 45.9336 0.74347 45.9414 0.765821 45.9485C0.781411 45.9532 0.797102 45.9575 0.812882 45.9614C0.815019 45.9621 0.817158 45.9628 0.8193 45.9635C0.848965 45.9712 0.87894 45.9776 0.909144 45.9828C0.931156 45.9863 0.953271 45.9892 0.975458 45.9913C0.995361 45.994 1.01533 45.9962 1.03535 45.9977C1.04248 45.9978 1.04962 45.9978 1.05675 45.9977C1.06957 45.9987 1.0824 45.9994 1.09525 45.9999C1.10595 46 1.11664 46 1.12734 45.9999H44.9051C45.1216 45.9998 45.3333 45.9355 45.5134 45.8152C45.6934 45.6948 45.8338 45.5238 45.9166 45.3237C45.9995 45.1236 46.0212 44.9034 45.979 44.691C45.9368 44.4786 45.8325 44.2835 45.6794 44.1303L24.5489 22.9999L45.6794 1.8696C45.8325 1.71641 45.9368 1.52128 45.979 1.30886C46.0212 1.09645 45.9995 0.876283 45.9166 0.676197C45.8338 0.476111 45.6934 0.305082 45.5134 0.184725C45.3333 0.0643682 45.1216 8.50213e-05 44.9051 0H21.9049H1.09525ZM2.1905 2.19047H19.2609L2.1905 19.2607V2.19047ZM22.3584 2.19047H42.2611L22.2258 22.2256L2.1905 42.2607V22.3582L22.3584 2.19047ZM23.0002 24.5487L42.2611 43.8094H3.73924L23.0002 24.5487Z" fill="black"/>
</svg>
