<svg width="46" height="46" viewBox="0 0 46 46" fill="none" xmlns="http://www.w3.org/2000/svg">
<path d="M23 0C10.3178 0 0 10.3178 0 23C0 35.6822 10.3178 46 23 46C35.6822 46 46 35.6822 46 23C46 10.3178 35.6822 0 23 0ZM23 3.45C33.7801 3.45 42.55 12.2199 42.55 23C42.55 29.7298 39.1318 35.6731 33.9407 39.1921L18.1035 15.7092C17.6815 15.0801 16.8907 14.8056 16.1696 15.0241C15.4451 15.2472 14.95 15.9171 14.95 16.675V31.625C14.95 32.5772 15.7228 33.35 16.675 33.35C17.6272 33.35 18.4 32.5772 18.4 31.625V22.3172L30.9085 40.8632C28.4866 41.9384 25.8152 42.55 23 42.55C12.2199 42.55 3.45 33.7801 3.45 23C3.45 12.2199 12.2199 3.45 23 3.45ZM29.325 12.65C28.3728 12.65 27.6 13.4228 27.6 14.375V24.1343L31.05 29.0824V14.375C31.05 13.4228 30.2772 12.65 29.325 12.65Z" fill="black"/>
</svg>
