<svg width="46" height="46" viewBox="0 0 46 46" fill="none" xmlns="http://www.w3.org/2000/svg">
<path d="M23 0C18.9414 0 16.1875 0.96875 14.4375 2.375C12.6875 3.78125 12 5.58984 12 7.09375V12H22V13H7.09375C5.26562 13 3.41016 13.793 2.09375 15.4688C0.777344 17.1445 0 19.6445 0 23C0 26.3555 0.777344 28.8555 2.09375 30.5312C3.41016 32.207 5.26562 33 7.09375 33H12V38.9062C12 40.4102 12.6875 42.2188 14.4375 43.625C16.1875 45.0312 18.9414 46 23 46C27.0586 46 29.8125 45.0312 31.5625 43.625C33.3125 42.2188 34 40.4102 34 38.9062V34H24V33H38.9062C40.7344 33 42.5898 32.207 43.9062 30.5312C45.2227 28.8555 46 26.3555 46 23C46 19.6445 45.2227 17.1445 43.9062 15.4688C42.5898 13.793 40.7344 13 38.9062 13H34V7.09375C34 5.55078 33.3164 3.73828 31.5625 2.34375C29.8086 0.949219 27.0547 0 23 0ZM23 2C26.7461 2 29.0156 2.875 30.3125 3.90625C31.6094 4.9375 32 6.13672 32 7.09375V19C32 20.6562 30.6562 22 29 22H17C14.9414 22 13.168 23.2695 12.4062 25.0625C12.2773 25.3594 12.1602 25.6758 12.0938 26C12.0273 26.3242 12 26.6562 12 27V31H7.09375C5.82422 31 4.64844 30.5039 3.6875 29.2812C2.72656 28.0586 2 26.043 2 23C2 19.957 2.72656 17.9414 3.6875 16.7188C4.64844 15.4961 5.82422 15 7.09375 15H24V10H14V7.09375C14 6.19922 14.3867 4.98047 15.6875 3.9375C16.9883 2.89453 19.2578 2 23 2ZM18 5C16.8984 5 16 5.89844 16 7C16 8.10156 16.8984 9 18 9C19.1016 9 20 8.10156 20 7C20 5.89844 19.1016 5 18 5ZM34 15H38.9062C40.1758 15 41.3516 15.4961 42.3125 16.7188C43.2734 17.9414 44 19.957 44 23C44 26.043 43.2734 28.0586 42.3125 29.2812C41.3516 30.5039 40.1758 31 38.9062 31H22V36H32V38.9062C32 39.8008 31.6133 41.0195 30.3125 42.0625C29.0117 43.1055 26.7422 44 23 44C19.2578 44 16.9883 43.1055 15.6875 42.0625C14.3867 41.0195 14 39.8008 14 38.9062V27C14 26.793 14.0234 26.6016 14.0625 26.4062C14.3438 25.0391 15.5508 24 17 24H29C31.7461 24 34 21.7461 34 19V15ZM28 37C26.8984 37 26 37.8984 26 39C26 40.1016 26.8984 41 28 41C29.1016 41 30 40.1016 30 39C30 37.8984 29.1016 37 28 37Z" fill="black"/>
</svg>
